<svg width="360" height="640" viewBox="0 0 360 640" fill="none" xmlns="http://www.w3.org/2000/svg">
<g clip-path="url(#clip0_150_63)">
<rect width="360" height="640" fill="#2A2550"/>
<rect x="48" y="270" width="265" height="288" rx="15" fill="#251D3A" fill-opacity="0.63"/>
<path d="M109.401 519H107.157V511.727H109.501C110.206 511.727 110.81 511.873 111.312 512.164C111.814 512.453 112.198 512.868 112.466 513.411C112.734 513.95 112.867 514.597 112.867 515.349C112.867 516.107 112.732 516.759 112.462 517.306C112.193 517.851 111.8 518.27 111.283 518.563C110.767 518.854 110.14 519 109.401 519ZM108.038 518.219H109.345C109.946 518.219 110.444 518.103 110.84 517.871C111.235 517.639 111.53 517.308 111.724 516.88C111.918 516.451 112.015 515.941 112.015 515.349C112.015 514.762 111.919 514.257 111.727 513.833C111.536 513.407 111.249 513.08 110.868 512.853C110.487 512.623 110.012 512.509 109.444 512.509H108.038V518.219ZM116.447 519.114C115.954 519.114 115.522 518.996 115.151 518.762C114.781 518.528 114.493 518.2 114.284 517.778C114.078 517.357 113.975 516.865 113.975 516.301C113.975 515.733 114.078 515.237 114.284 514.813C114.493 514.389 114.781 514.06 115.151 513.826C115.522 513.592 115.954 513.474 116.447 513.474C116.939 513.474 117.37 513.592 117.739 513.826C118.111 514.06 118.4 514.389 118.606 514.813C118.814 515.237 118.918 515.733 118.918 516.301C118.918 516.865 118.814 517.357 118.606 517.778C118.4 518.2 118.111 518.528 117.739 518.762C117.37 518.996 116.939 519.114 116.447 519.114ZM116.447 518.361C116.821 518.361 117.129 518.265 117.37 518.073C117.612 517.881 117.79 517.629 117.906 517.317C118.022 517.004 118.08 516.666 118.08 516.301C118.08 515.937 118.022 515.597 117.906 515.282C117.79 514.967 117.612 514.713 117.37 514.518C117.129 514.324 116.821 514.227 116.447 514.227C116.073 514.227 115.765 514.324 115.524 514.518C115.282 514.713 115.103 514.967 114.987 515.282C114.871 515.597 114.813 515.937 114.813 516.301C114.813 516.666 114.871 517.004 114.987 517.317C115.103 517.629 115.282 517.881 115.524 518.073C115.765 518.265 116.073 518.361 116.447 518.361ZM121.036 515.719V519H120.198V513.545H121.007V514.398H121.078C121.206 514.121 121.4 513.898 121.661 513.73C121.921 513.56 122.257 513.474 122.669 513.474C123.039 513.474 123.362 513.55 123.639 513.702C123.916 513.851 124.131 514.078 124.285 514.384C124.439 514.687 124.516 515.07 124.516 515.534V519H123.678V515.591C123.678 515.162 123.567 514.829 123.344 514.589C123.121 514.348 122.816 514.227 122.428 514.227C122.16 514.227 121.921 514.285 121.71 514.401C121.502 514.517 121.338 514.687 121.217 514.909C121.096 515.132 121.036 515.402 121.036 515.719ZM126.786 511.727V512.366C126.786 512.561 126.75 512.768 126.679 512.988C126.611 513.206 126.509 513.418 126.374 513.624C126.241 513.827 126.08 514.005 125.891 514.156L125.437 513.787C125.586 513.574 125.715 513.353 125.824 513.123C125.935 512.891 125.991 512.643 125.991 512.381V511.727H126.786ZM130.412 513.545V514.256H127.585V513.545H130.412ZM128.409 512.239H129.247V517.438C129.247 517.674 129.281 517.852 129.35 517.97C129.421 518.086 129.511 518.164 129.62 518.205C129.731 518.242 129.848 518.261 129.971 518.261C130.064 518.261 130.139 518.257 130.199 518.247C130.258 518.235 130.305 518.226 130.341 518.219L130.511 518.972C130.454 518.993 130.375 519.014 130.273 519.036C130.171 519.059 130.042 519.071 129.886 519.071C129.649 519.071 129.417 519.02 129.19 518.918C128.965 518.817 128.778 518.661 128.629 518.453C128.482 518.245 128.409 517.982 128.409 517.665V512.239ZM135.323 515.719V519H134.485V511.727H135.323V514.398H135.394C135.522 514.116 135.714 513.892 135.969 513.727C136.227 513.558 136.571 513.474 136.999 513.474C137.371 513.474 137.696 513.549 137.976 513.698C138.255 513.845 138.472 514.071 138.625 514.376C138.782 514.679 138.86 515.065 138.86 515.534V519H138.022V515.591C138.022 515.158 137.909 514.823 137.684 514.586C137.462 514.347 137.153 514.227 136.758 514.227C136.483 514.227 136.237 514.285 136.019 514.401C135.803 514.517 135.633 514.687 135.508 514.909C135.384 515.132 135.323 515.402 135.323 515.719ZM141.998 519.128C141.652 519.128 141.339 519.063 141.057 518.933C140.775 518.8 140.552 518.609 140.386 518.361C140.22 518.11 140.137 517.807 140.137 517.452C140.137 517.139 140.199 516.886 140.322 516.692C140.445 516.495 140.61 516.341 140.816 516.23C141.022 516.119 141.249 516.036 141.497 515.982C141.748 515.925 142.001 515.88 142.254 515.847C142.585 515.804 142.854 515.772 143.06 515.751C143.268 515.727 143.42 515.688 143.514 515.634C143.612 515.579 143.66 515.484 143.66 515.349V515.321C143.66 514.971 143.564 514.698 143.372 514.504C143.183 514.31 142.895 514.213 142.509 514.213C142.109 514.213 141.796 514.301 141.568 514.476C141.341 514.651 141.181 514.838 141.089 515.037L140.294 514.753C140.436 514.421 140.625 514.163 140.862 513.979C141.101 513.792 141.361 513.661 141.643 513.588C141.927 513.512 142.206 513.474 142.481 513.474C142.656 513.474 142.858 513.496 143.085 513.538C143.314 513.579 143.536 513.663 143.749 513.79C143.964 513.918 144.143 514.111 144.285 514.369C144.427 514.627 144.498 514.973 144.498 515.406V519H143.66V518.261H143.617C143.561 518.38 143.466 518.506 143.333 518.641C143.201 518.776 143.024 518.891 142.804 518.986C142.584 519.08 142.315 519.128 141.998 519.128ZM142.126 518.375C142.457 518.375 142.737 518.31 142.964 518.18C143.194 518.049 143.367 517.881 143.483 517.675C143.601 517.469 143.66 517.253 143.66 517.026V516.259C143.625 516.301 143.546 516.34 143.426 516.376C143.307 516.409 143.17 516.438 143.014 516.464C142.86 516.488 142.71 516.509 142.563 516.528C142.418 516.545 142.301 516.559 142.211 516.571C141.993 516.599 141.79 516.646 141.6 516.71C141.413 516.771 141.262 516.865 141.146 516.99C141.032 517.113 140.975 517.281 140.975 517.494C140.975 517.786 141.083 518.006 141.299 518.155C141.516 518.302 141.792 518.375 142.126 518.375ZM150.293 513.545L148.276 519H147.423L145.406 513.545H146.315L147.821 517.892H147.878L149.384 513.545H150.293ZM153.491 519.114C152.965 519.114 152.512 518.998 152.13 518.766C151.752 518.531 151.459 518.205 151.253 517.786C151.05 517.364 150.948 516.874 150.948 516.315C150.948 515.757 151.05 515.264 151.253 514.838C151.459 514.41 151.746 514.076 152.113 513.837C152.482 513.595 152.913 513.474 153.405 513.474C153.689 513.474 153.97 513.522 154.247 513.616C154.524 513.711 154.776 513.865 155.003 514.078C155.231 514.289 155.412 514.568 155.547 514.916C155.682 515.264 155.749 515.693 155.749 516.202V516.557H151.544V515.832H154.897C154.897 515.525 154.835 515.25 154.712 515.009C154.591 514.767 154.419 514.576 154.194 514.437C153.971 514.297 153.708 514.227 153.405 514.227C153.071 514.227 152.783 514.31 152.539 514.476C152.297 514.639 152.111 514.852 151.981 515.115C151.851 515.378 151.786 515.66 151.786 515.96V516.443C151.786 516.855 151.857 517.204 151.999 517.491C152.143 517.775 152.343 517.991 152.599 518.141C152.855 518.287 153.152 518.361 153.491 518.361C153.711 518.361 153.91 518.33 154.087 518.268C154.267 518.205 154.422 518.11 154.552 517.984C154.682 517.857 154.783 517.698 154.854 517.509L155.664 517.736C155.579 518.01 155.435 518.252 155.234 518.46C155.033 518.666 154.784 518.827 154.488 518.943C154.192 519.057 153.86 519.114 153.491 519.114ZM161.441 519.128C161.096 519.128 160.782 519.063 160.5 518.933C160.219 518.8 159.995 518.609 159.829 518.361C159.664 518.11 159.581 517.807 159.581 517.452C159.581 517.139 159.642 516.886 159.765 516.692C159.888 516.495 160.053 516.341 160.259 516.23C160.465 516.119 160.692 516.036 160.941 515.982C161.192 515.925 161.444 515.88 161.697 515.847C162.029 515.804 162.297 515.772 162.503 515.751C162.712 515.727 162.863 515.688 162.958 515.634C163.055 515.579 163.103 515.484 163.103 515.349V515.321C163.103 514.971 163.008 514.698 162.816 514.504C162.626 514.31 162.339 514.213 161.953 514.213C161.553 514.213 161.239 514.301 161.012 514.476C160.785 514.651 160.625 514.838 160.532 515.037L159.737 514.753C159.879 514.421 160.068 514.163 160.305 513.979C160.544 513.792 160.805 513.661 161.086 513.588C161.37 513.512 161.65 513.474 161.924 513.474C162.1 513.474 162.301 513.496 162.528 513.538C162.758 513.579 162.979 513.663 163.192 513.79C163.408 513.918 163.586 514.111 163.728 514.369C163.87 514.627 163.941 514.973 163.941 515.406V519H163.103V518.261H163.061C163.004 518.38 162.909 518.506 162.777 518.641C162.644 518.776 162.468 518.891 162.248 518.986C162.027 519.08 161.759 519.128 161.441 519.128ZM161.569 518.375C161.901 518.375 162.18 518.31 162.407 518.18C162.637 518.049 162.81 517.881 162.926 517.675C163.044 517.469 163.103 517.253 163.103 517.026V516.259C163.068 516.301 162.99 516.34 162.869 516.376C162.751 516.409 162.613 516.438 162.457 516.464C162.303 516.488 162.153 516.509 162.006 516.528C161.862 516.545 161.745 516.559 161.655 516.571C161.437 516.599 161.233 516.646 161.044 516.71C160.857 516.771 160.705 516.865 160.589 516.99C160.476 517.113 160.419 517.281 160.419 517.494C160.419 517.786 160.526 518.006 160.742 518.155C160.96 518.302 161.236 518.375 161.569 518.375ZM166.309 515.719V519H165.471V513.545H166.281V514.398H166.352C166.48 514.121 166.674 513.898 166.934 513.73C167.195 513.56 167.531 513.474 167.943 513.474C168.312 513.474 168.635 513.55 168.912 513.702C169.189 513.851 169.405 514.078 169.559 514.384C169.712 514.687 169.789 515.07 169.789 515.534V519H168.951V515.591C168.951 515.162 168.84 514.829 168.617 514.589C168.395 514.348 168.09 514.227 167.701 514.227C167.434 514.227 167.195 514.285 166.984 514.401C166.776 514.517 166.611 514.687 166.49 514.909C166.37 515.132 166.309 515.402 166.309 515.719ZM175.738 519.128C175.393 519.128 175.079 519.063 174.797 518.933C174.516 518.8 174.292 518.609 174.126 518.361C173.96 518.11 173.878 517.807 173.878 517.452C173.878 517.139 173.939 516.886 174.062 516.692C174.185 516.495 174.35 516.341 174.556 516.23C174.762 516.119 174.989 516.036 175.238 515.982C175.489 515.925 175.741 515.88 175.994 515.847C176.325 515.804 176.594 515.772 176.8 515.751C177.008 515.727 177.16 515.688 177.255 515.634C177.352 515.579 177.4 515.484 177.4 515.349V515.321C177.4 514.971 177.304 514.698 177.113 514.504C176.923 514.31 176.636 514.213 176.25 514.213C175.85 514.213 175.536 514.301 175.309 514.476C175.081 514.651 174.922 514.838 174.829 515.037L174.034 514.753C174.176 514.421 174.365 514.163 174.602 513.979C174.841 513.792 175.102 513.661 175.383 513.588C175.667 513.512 175.947 513.474 176.221 513.474C176.397 513.474 176.598 513.496 176.825 513.538C177.055 513.579 177.276 513.663 177.489 513.79C177.705 513.918 177.883 514.111 178.025 514.369C178.167 514.627 178.238 514.973 178.238 515.406V519H177.4V518.261H177.358C177.301 518.38 177.206 518.506 177.074 518.641C176.941 518.776 176.765 518.891 176.544 518.986C176.324 519.08 176.056 519.128 175.738 519.128ZM175.866 518.375C176.198 518.375 176.477 518.31 176.704 518.18C176.934 518.049 177.107 517.881 177.223 517.675C177.341 517.469 177.4 517.253 177.4 517.026V516.259C177.365 516.301 177.287 516.34 177.166 516.376C177.048 516.409 176.91 516.438 176.754 516.464C176.6 516.488 176.45 516.509 176.303 516.528C176.159 516.545 176.041 516.559 175.951 516.571C175.734 516.599 175.53 516.646 175.341 516.71C175.154 516.771 175.002 516.865 174.886 516.99C174.772 517.113 174.716 517.281 174.716 517.494C174.716 517.786 174.823 518.006 175.039 518.155C175.257 518.302 175.532 518.375 175.866 518.375ZM181.984 519.114C181.473 519.114 181.032 518.993 180.663 518.751C180.294 518.51 180.009 518.177 179.811 517.754C179.612 517.33 179.512 516.846 179.512 516.301C179.512 515.747 179.614 515.258 179.818 514.835C180.024 514.408 180.31 514.076 180.677 513.837C181.046 513.595 181.477 513.474 181.97 513.474C182.353 513.474 182.699 513.545 183.007 513.688C183.314 513.83 183.567 514.028 183.763 514.284C183.96 514.54 184.081 514.838 184.129 515.179H183.291C183.227 514.93 183.085 514.71 182.865 514.518C182.647 514.324 182.353 514.227 181.984 514.227C181.657 514.227 181.371 514.312 181.125 514.483C180.881 514.651 180.69 514.889 180.553 515.197C180.418 515.502 180.35 515.861 180.35 516.273C180.35 516.694 180.417 517.061 180.549 517.374C180.684 517.686 180.874 517.929 181.117 518.102C181.364 518.274 181.652 518.361 181.984 518.361C182.202 518.361 182.399 518.323 182.577 518.247C182.755 518.171 182.905 518.062 183.028 517.92C183.151 517.778 183.239 517.608 183.291 517.409H184.129C184.081 517.731 183.964 518.021 183.777 518.279C183.593 518.535 183.348 518.738 183.042 518.89C182.739 519.039 182.386 519.114 181.984 519.114ZM187.57 519.114C187.059 519.114 186.618 518.993 186.249 518.751C185.88 518.51 185.595 518.177 185.397 517.754C185.198 517.33 185.098 516.846 185.098 516.301C185.098 515.747 185.2 515.258 185.404 514.835C185.61 514.408 185.896 514.076 186.263 513.837C186.632 513.595 187.063 513.474 187.556 513.474C187.939 513.474 188.285 513.545 188.593 513.688C188.9 513.83 189.152 514.028 189.349 514.284C189.545 514.54 189.667 514.838 189.715 515.179H188.877C188.813 514.93 188.671 514.71 188.451 514.518C188.233 514.324 187.939 514.227 187.57 514.227C187.243 514.227 186.957 514.312 186.71 514.483C186.467 514.651 186.276 514.889 186.139 515.197C186.004 515.502 185.936 515.861 185.936 516.273C185.936 516.694 186.003 517.061 186.135 517.374C186.27 517.686 186.46 517.929 186.703 518.102C186.95 518.274 187.238 518.361 187.57 518.361C187.788 518.361 187.985 518.323 188.163 518.247C188.34 518.171 188.491 518.062 188.614 517.92C188.737 517.778 188.825 517.608 188.877 517.409H189.715C189.667 517.731 189.55 518.021 189.363 518.279C189.179 518.535 188.934 518.738 188.628 518.89C188.325 519.039 187.972 519.114 187.57 519.114ZM193.156 519.114C192.663 519.114 192.231 518.996 191.86 518.762C191.49 518.528 191.201 518.2 190.993 517.778C190.787 517.357 190.684 516.865 190.684 516.301C190.684 515.733 190.787 515.237 190.993 514.813C191.201 514.389 191.49 514.06 191.86 513.826C192.231 513.592 192.663 513.474 193.156 513.474C193.648 513.474 194.079 513.592 194.448 513.826C194.82 514.06 195.109 514.389 195.315 514.813C195.523 515.237 195.627 515.733 195.627 516.301C195.627 516.865 195.523 517.357 195.315 517.778C195.109 518.2 194.82 518.528 194.448 518.762C194.079 518.996 193.648 519.114 193.156 519.114ZM193.156 518.361C193.53 518.361 193.838 518.265 194.079 518.073C194.321 517.881 194.499 517.629 194.615 517.317C194.731 517.004 194.789 516.666 194.789 516.301C194.789 515.937 194.731 515.597 194.615 515.282C194.499 514.967 194.321 514.713 194.079 514.518C193.838 514.324 193.53 514.227 193.156 514.227C192.782 514.227 192.474 514.324 192.233 514.518C191.991 514.713 191.812 514.967 191.696 515.282C191.58 515.597 191.522 515.937 191.522 516.301C191.522 516.666 191.58 517.004 191.696 517.317C191.812 517.629 191.991 517.881 192.233 518.073C192.474 518.265 192.782 518.361 193.156 518.361ZM200.344 516.77V513.545H201.182V519H200.344V518.077H200.287C200.16 518.354 199.961 518.589 199.691 518.783C199.421 518.975 199.08 519.071 198.668 519.071C198.327 519.071 198.024 518.996 197.759 518.847C197.494 518.696 197.285 518.469 197.134 518.165C196.982 517.86 196.907 517.475 196.907 517.011V513.545H197.745V516.955C197.745 517.352 197.856 517.67 198.079 517.906C198.303 518.143 198.59 518.261 198.938 518.261C199.146 518.261 199.358 518.208 199.574 518.102C199.791 517.995 199.974 517.832 200.12 517.612C200.27 517.391 200.344 517.111 200.344 516.77ZM203.555 515.719V519H202.717V513.545H203.527V514.398H203.598C203.726 514.121 203.92 513.898 204.18 513.73C204.441 513.56 204.777 513.474 205.189 513.474C205.558 513.474 205.881 513.55 206.158 513.702C206.435 513.851 206.651 514.078 206.805 514.384C206.958 514.687 207.035 515.07 207.035 515.534V519H206.197V515.591C206.197 515.162 206.086 514.829 205.864 514.589C205.641 514.348 205.336 514.227 204.947 514.227C204.68 514.227 204.441 514.285 204.23 514.401C204.022 514.517 203.857 514.687 203.736 514.909C203.616 515.132 203.555 515.402 203.555 515.719ZM210.939 513.545V514.256H208.112V513.545H210.939ZM208.936 512.239H209.774V517.438C209.774 517.674 209.809 517.852 209.877 517.97C209.948 518.086 210.038 518.164 210.147 518.205C210.258 518.242 210.376 518.261 210.499 518.261C210.591 518.261 210.667 518.257 210.726 518.247C210.785 518.235 210.832 518.226 210.868 518.219L211.038 518.972C210.982 518.993 210.902 519.014 210.801 519.036C210.699 519.059 210.57 519.071 210.413 519.071C210.177 519.071 209.945 519.02 209.717 518.918C209.493 518.817 209.305 518.661 209.156 518.453C209.01 518.245 208.936 517.982 208.936 517.665V512.239ZM213.293 516.955V516.912C213.298 516.46 213.345 516.1 213.435 515.832C213.525 515.565 213.653 515.348 213.819 515.183C213.985 515.017 214.184 514.864 214.416 514.724C214.555 514.639 214.681 514.539 214.792 514.423C214.903 514.304 214.991 514.168 215.055 514.014C215.121 513.86 215.154 513.69 215.154 513.503C215.154 513.271 215.1 513.07 214.991 512.899C214.882 512.729 214.736 512.597 214.554 512.505C214.372 512.413 214.169 512.366 213.947 512.366C213.753 512.366 213.566 512.407 213.386 512.487C213.206 512.568 213.055 512.694 212.935 512.867C212.814 513.04 212.744 513.266 212.725 513.545H211.83C211.849 513.143 211.953 512.799 212.143 512.512C212.335 512.226 212.587 512.007 212.899 511.855C213.214 511.704 213.563 511.628 213.947 511.628C214.363 511.628 214.726 511.711 215.033 511.876C215.344 512.042 215.583 512.269 215.751 512.558C215.921 512.847 216.006 513.176 216.006 513.545C216.006 513.806 215.966 514.041 215.886 514.252C215.808 514.463 215.694 514.651 215.545 514.817C215.398 514.982 215.22 515.129 215.012 515.257C214.804 515.387 214.637 515.525 214.511 515.669C214.386 515.811 214.295 515.98 214.238 516.177C214.181 516.373 214.15 516.618 214.146 516.912V516.955H213.293ZM213.748 519.057C213.573 519.057 213.422 518.994 213.297 518.869C213.171 518.743 213.109 518.593 213.109 518.418C213.109 518.242 213.171 518.092 213.297 517.967C213.422 517.841 213.573 517.778 213.748 517.778C213.923 517.778 214.073 517.841 214.199 517.967C214.324 518.092 214.387 518.242 214.387 518.418C214.387 518.534 214.358 518.64 214.298 518.737C214.242 518.834 214.165 518.912 214.068 518.972C213.973 519.028 213.866 519.057 213.748 519.057Z" fill="white"/>
<path d="M224.171 513.545C224.129 513.186 223.956 512.906 223.653 512.707C223.35 512.509 222.978 512.409 222.538 512.409C222.216 512.409 221.934 512.461 221.693 512.565C221.454 512.67 221.267 512.813 221.132 512.995C220.999 513.177 220.933 513.384 220.933 513.616C220.933 513.811 220.979 513.978 221.071 514.117C221.166 514.254 221.287 514.369 221.434 514.462C221.58 514.552 221.734 514.626 221.895 514.685C222.056 514.742 222.204 514.788 222.339 514.824L223.078 515.023C223.267 515.072 223.478 515.141 223.71 515.229C223.944 515.316 224.168 515.436 224.381 515.587C224.596 515.737 224.774 515.928 224.914 516.163C225.053 516.397 225.123 516.685 225.123 517.026C225.123 517.419 225.02 517.774 224.814 518.091C224.611 518.408 224.312 518.66 223.919 518.847C223.529 519.034 223.054 519.128 222.495 519.128C221.974 519.128 221.523 519.044 221.142 518.876C220.764 518.708 220.465 518.473 220.247 518.173C220.032 517.872 219.91 517.523 219.882 517.125H220.791C220.814 517.4 220.907 517.627 221.068 517.807C221.231 517.984 221.437 518.117 221.686 518.205C221.937 518.29 222.206 518.332 222.495 518.332C222.831 518.332 223.133 518.278 223.401 518.169C223.668 518.058 223.88 517.904 224.036 517.707C224.193 517.509 224.271 517.277 224.271 517.011C224.271 516.77 224.203 516.573 224.068 516.422C223.934 516.27 223.756 516.147 223.536 516.053C223.316 515.958 223.078 515.875 222.822 515.804L221.927 515.548C221.359 515.385 220.909 515.152 220.578 514.849C220.246 514.546 220.081 514.149 220.081 513.659C220.081 513.252 220.191 512.897 220.411 512.594C220.633 512.288 220.932 512.052 221.306 511.884C221.682 511.713 222.102 511.628 222.566 511.628C223.035 511.628 223.452 511.712 223.816 511.88C224.181 512.046 224.47 512.273 224.683 512.562C224.898 512.851 225.012 513.179 225.024 513.545H224.171ZM226.457 519V513.545H227.296V519H226.457ZM226.884 512.636C226.72 512.636 226.579 512.581 226.461 512.469C226.345 512.358 226.287 512.224 226.287 512.068C226.287 511.912 226.345 511.778 226.461 511.667C226.579 511.556 226.72 511.5 226.884 511.5C227.047 511.5 227.187 511.556 227.303 511.667C227.421 511.778 227.48 511.912 227.48 512.068C227.48 512.224 227.421 512.358 227.303 512.469C227.187 512.581 227.047 512.636 226.884 512.636ZM231.032 521.159C230.627 521.159 230.279 521.107 229.988 521.003C229.697 520.901 229.454 520.766 229.26 520.598C229.068 520.432 228.916 520.255 228.802 520.065L229.47 519.597C229.545 519.696 229.641 519.81 229.757 519.938C229.873 520.068 230.032 520.18 230.233 520.275C230.437 520.372 230.703 520.42 231.032 520.42C231.473 520.42 231.836 520.314 232.122 520.101C232.409 519.888 232.552 519.554 232.552 519.099V517.991H232.481C232.42 518.091 232.332 518.214 232.218 518.361C232.107 518.505 231.946 518.634 231.735 518.748C231.527 518.859 231.245 518.915 230.89 518.915C230.45 518.915 230.054 518.811 229.704 518.602C229.356 518.394 229.08 518.091 228.877 517.693C228.675 517.295 228.575 516.812 228.575 516.244C228.575 515.686 228.673 515.199 228.87 514.785C229.066 514.368 229.34 514.046 229.69 513.819C230.04 513.589 230.445 513.474 230.904 513.474C231.259 513.474 231.541 513.534 231.75 513.652C231.96 513.768 232.121 513.901 232.233 514.05C232.346 514.196 232.434 514.317 232.495 514.412H232.581V513.545H233.39V519.156C233.39 519.625 233.284 520.006 233.071 520.3C232.86 520.596 232.576 520.812 232.218 520.95C231.863 521.089 231.468 521.159 231.032 521.159ZM231.004 518.162C231.34 518.162 231.624 518.085 231.856 517.931C232.088 517.777 232.264 517.556 232.385 517.267C232.506 516.978 232.566 516.633 232.566 516.23C232.566 515.837 232.507 515.49 232.389 515.19C232.27 514.889 232.095 514.653 231.863 514.483C231.631 514.312 231.345 514.227 231.004 514.227C230.649 514.227 230.353 514.317 230.116 514.497C229.882 514.677 229.705 514.919 229.587 515.222C229.471 515.525 229.413 515.861 229.413 516.23C229.413 516.609 229.472 516.944 229.59 517.235C229.711 517.524 229.889 517.751 230.123 517.917C230.36 518.08 230.653 518.162 231.004 518.162ZM235.762 515.719V519H234.924V513.545H235.734V514.398H235.805C235.933 514.121 236.127 513.898 236.387 513.73C236.648 513.56 236.984 513.474 237.396 513.474C237.765 513.474 238.088 513.55 238.365 513.702C238.642 513.851 238.858 514.078 239.012 514.384C239.166 514.687 239.242 515.07 239.242 515.534V519H238.404V515.591C238.404 515.162 238.293 514.829 238.071 514.589C237.848 514.348 237.543 514.227 237.154 514.227C236.887 514.227 236.648 514.285 236.437 514.401C236.229 514.517 236.064 514.687 235.943 514.909C235.823 515.132 235.762 515.402 235.762 515.719ZM247.024 516.77V513.545H247.862V519H247.024V518.077H246.967C246.839 518.354 246.64 518.589 246.37 518.783C246.101 518.975 245.76 519.071 245.348 519.071C245.007 519.071 244.704 518.996 244.439 518.847C244.174 518.696 243.965 518.469 243.814 518.165C243.662 517.86 243.586 517.475 243.586 517.011V513.545H244.424V516.955C244.424 517.352 244.536 517.67 244.758 517.906C244.983 518.143 245.27 518.261 245.618 518.261C245.826 518.261 246.038 518.208 246.253 518.102C246.471 517.995 246.653 517.832 246.8 517.612C246.949 517.391 247.024 517.111 247.024 516.77ZM249.397 521.045V513.545H250.207V514.412H250.306C250.368 514.317 250.453 514.196 250.562 514.05C250.673 513.901 250.832 513.768 251.038 513.652C251.246 513.534 251.528 513.474 251.883 513.474C252.342 513.474 252.747 513.589 253.097 513.819C253.448 514.049 253.721 514.374 253.918 514.795C254.114 515.217 254.212 515.714 254.212 516.287C254.212 516.865 254.114 517.365 253.918 517.789C253.721 518.21 253.449 518.537 253.101 518.769C252.753 518.999 252.351 519.114 251.897 519.114C251.547 519.114 251.266 519.056 251.055 518.94C250.845 518.821 250.682 518.687 250.569 518.538C250.455 518.387 250.368 518.261 250.306 518.162H250.235V521.045H249.397ZM250.221 516.273C250.221 516.685 250.281 517.048 250.402 517.363C250.523 517.675 250.699 517.92 250.931 518.098C251.163 518.273 251.447 518.361 251.783 518.361C252.134 518.361 252.426 518.268 252.66 518.084C252.897 517.897 253.075 517.646 253.193 517.331C253.314 517.014 253.374 516.661 253.374 516.273C253.374 515.889 253.315 515.544 253.197 515.236C253.081 514.926 252.904 514.681 252.668 514.501C252.433 514.318 252.138 514.227 251.783 514.227C251.442 514.227 251.156 514.314 250.924 514.487C250.692 514.657 250.517 514.896 250.398 515.204C250.28 515.509 250.221 515.866 250.221 516.273Z" fill="#FF5700"/>
<rect x="75" y="308" width="210" height="41" rx="15" fill="#D86704" fill-opacity="0.8"/>
<path d="M143.469 333V324.273H146.418C147.1 324.273 147.659 324.389 148.097 324.622C148.534 324.852 148.858 325.169 149.068 325.572C149.279 325.976 149.384 326.435 149.384 326.949C149.384 327.463 149.279 327.919 149.068 328.317C148.858 328.714 148.536 329.027 148.101 329.254C147.666 329.479 147.111 329.591 146.435 329.591H144.048V328.636H146.401C146.867 328.636 147.242 328.568 147.526 328.432C147.813 328.295 148.02 328.102 148.148 327.852C148.279 327.599 148.344 327.298 148.344 326.949C148.344 326.599 148.279 326.294 148.148 326.033C148.017 325.771 147.808 325.57 147.521 325.428C147.235 325.283 146.855 325.21 146.384 325.21H144.526V333H143.469ZM147.577 329.08L149.725 333H148.497L146.384 329.08H147.577ZM153.597 333.136C153.006 333.136 152.488 332.996 152.042 332.714C151.599 332.433 151.252 332.04 151.002 331.534C150.755 331.028 150.631 330.437 150.631 329.761C150.631 329.08 150.755 328.484 151.002 327.976C151.252 327.467 151.599 327.072 152.042 326.791C152.488 326.51 153.006 326.369 153.597 326.369C154.188 326.369 154.705 326.51 155.148 326.791C155.594 327.072 155.941 327.467 156.188 327.976C156.438 328.484 156.563 329.08 156.563 329.761C156.563 330.437 156.438 331.028 156.188 331.534C155.941 332.04 155.594 332.433 155.148 332.714C154.705 332.996 154.188 333.136 153.597 333.136ZM153.597 332.233C154.046 332.233 154.415 332.118 154.705 331.888C154.995 331.658 155.209 331.355 155.349 330.98C155.488 330.605 155.557 330.199 155.557 329.761C155.557 329.324 155.488 328.916 155.349 328.538C155.209 328.161 154.995 327.855 154.705 327.622C154.415 327.389 154.046 327.273 153.597 327.273C153.148 327.273 152.779 327.389 152.489 327.622C152.199 327.855 151.985 328.161 151.846 328.538C151.706 328.916 151.637 329.324 151.637 329.761C151.637 330.199 151.706 330.605 151.846 330.98C151.985 331.355 152.199 331.658 152.489 331.888C152.779 332.118 153.148 332.233 153.597 332.233ZM159.104 324.273V333H158.098V324.273H159.104ZM161.952 324.273V333H160.946V324.273H161.952ZM174.225 324.273V333H173.203L168.447 326.148H168.362V333H167.305V324.273H168.328L173.1 331.142H173.186V324.273H174.225ZM180.329 330.324V326.455H181.334V333H180.329V331.892H180.26C180.107 332.224 179.868 332.507 179.545 332.74C179.221 332.97 178.812 333.085 178.317 333.085C177.908 333.085 177.545 332.996 177.226 332.817C176.908 332.635 176.658 332.362 176.476 331.999C176.295 331.632 176.204 331.17 176.204 330.614V326.455H177.209V330.545C177.209 331.023 177.343 331.403 177.61 331.688C177.88 331.972 178.224 332.114 178.641 332.114C178.891 332.114 179.145 332.05 179.404 331.922C179.665 331.794 179.884 331.598 180.06 331.334C180.239 331.07 180.329 330.733 180.329 330.324ZM183.176 333V326.455H184.148V327.477H184.233C184.369 327.128 184.59 326.857 184.894 326.663C185.198 326.467 185.563 326.369 185.989 326.369C186.421 326.369 186.78 326.467 187.067 326.663C187.357 326.857 187.583 327.128 187.744 327.477H187.813C187.98 327.139 188.232 326.871 188.567 326.672C188.902 326.47 189.304 326.369 189.773 326.369C190.358 326.369 190.837 326.553 191.209 326.919C191.581 327.283 191.767 327.849 191.767 328.619V333H190.762V328.619C190.762 328.136 190.629 327.791 190.365 327.584C190.101 327.376 189.79 327.273 189.432 327.273C188.972 327.273 188.615 327.412 188.362 327.69C188.11 327.966 187.983 328.315 187.983 328.739V333H186.96V328.517C186.96 328.145 186.84 327.845 186.598 327.618C186.357 327.388 186.046 327.273 185.665 327.273C185.404 327.273 185.159 327.342 184.932 327.482C184.708 327.621 184.526 327.814 184.387 328.061C184.25 328.305 184.182 328.588 184.182 328.909V333H183.176ZM193.742 333V324.273H194.748V327.494H194.833C194.907 327.381 195.009 327.236 195.14 327.06C195.274 326.881 195.464 326.722 195.711 326.582C195.961 326.44 196.299 326.369 196.725 326.369C197.276 326.369 197.762 326.507 198.183 326.783C198.603 327.058 198.931 327.449 199.167 327.955C199.403 328.46 199.521 329.057 199.521 329.744C199.521 330.438 199.403 331.038 199.167 331.547C198.931 332.053 198.605 332.445 198.187 332.723C197.769 332.999 197.288 333.136 196.742 333.136C196.322 333.136 195.985 333.067 195.732 332.928C195.48 332.786 195.285 332.625 195.149 332.446C195.012 332.264 194.907 332.114 194.833 331.994H194.714V333H193.742ZM194.731 329.727C194.731 330.222 194.803 330.658 194.948 331.036C195.093 331.411 195.305 331.705 195.583 331.918C195.862 332.128 196.203 332.233 196.606 332.233C197.026 332.233 197.377 332.122 197.659 331.901C197.943 331.676 198.156 331.375 198.298 330.997C198.443 330.616 198.515 330.193 198.515 329.727C198.515 329.267 198.444 328.852 198.302 328.483C198.163 328.111 197.951 327.817 197.667 327.601C197.386 327.382 197.032 327.273 196.606 327.273C196.197 327.273 195.853 327.376 195.575 327.584C195.296 327.788 195.086 328.075 194.944 328.445C194.802 328.811 194.731 329.239 194.731 329.727ZM203.803 333.136C203.173 333.136 202.629 332.997 202.171 332.719C201.717 332.438 201.366 332.045 201.119 331.543C200.874 331.037 200.752 330.449 200.752 329.778C200.752 329.108 200.874 328.517 201.119 328.006C201.366 327.491 201.71 327.091 202.15 326.804C202.593 326.514 203.11 326.369 203.701 326.369C204.042 326.369 204.379 326.426 204.711 326.54C205.044 326.653 205.346 326.838 205.619 327.094C205.892 327.347 206.109 327.682 206.271 328.099C206.433 328.517 206.514 329.031 206.514 329.642V330.068H201.468V329.199H205.491C205.491 328.83 205.417 328.5 205.269 328.21C205.124 327.92 204.917 327.692 204.647 327.524C204.38 327.357 204.065 327.273 203.701 327.273C203.301 327.273 202.954 327.372 202.661 327.571C202.372 327.767 202.149 328.023 201.992 328.338C201.836 328.653 201.758 328.991 201.758 329.352V329.932C201.758 330.426 201.843 330.845 202.014 331.189C202.187 331.53 202.427 331.79 202.734 331.969C203.041 332.145 203.397 332.233 203.803 332.233C204.068 332.233 204.306 332.196 204.519 332.122C204.735 332.045 204.921 331.932 205.078 331.781C205.234 331.628 205.355 331.437 205.44 331.21L206.411 331.483C206.309 331.812 206.137 332.102 205.896 332.352C205.654 332.599 205.356 332.793 205.001 332.932C204.646 333.068 204.247 333.136 203.803 333.136ZM208.044 333V326.455H209.015V327.443H209.083C209.203 327.119 209.419 326.857 209.731 326.655C210.044 326.453 210.396 326.352 210.788 326.352C210.862 326.352 210.954 326.354 211.065 326.357C211.176 326.359 211.259 326.364 211.316 326.369V327.392C211.282 327.384 211.204 327.371 211.082 327.354C210.963 327.334 210.836 327.324 210.703 327.324C210.384 327.324 210.1 327.391 209.85 327.524C209.603 327.655 209.407 327.837 209.262 328.07C209.12 328.3 209.049 328.562 209.049 328.858V333H208.044Z" fill="white"/>
<rect x="75" y="367" width="210" height="41" rx="15" fill="#D86704" fill-opacity="0.8"/>
<path d="M139.264 392V383.273H142.213C142.897 383.273 143.457 383.396 143.892 383.643C144.329 383.888 144.653 384.219 144.863 384.636C145.074 385.054 145.179 385.52 145.179 386.034C145.179 386.548 145.074 387.016 144.863 387.436C144.656 387.857 144.335 388.192 143.9 388.442C143.466 388.689 142.909 388.812 142.23 388.812H140.116V387.875H142.196C142.664 387.875 143.041 387.794 143.325 387.632C143.609 387.47 143.815 387.251 143.943 386.976C144.074 386.697 144.139 386.384 144.139 386.034C144.139 385.685 144.074 385.372 143.943 385.097C143.815 384.821 143.608 384.605 143.321 384.449C143.034 384.29 142.653 384.21 142.179 384.21H140.321V392H139.264ZM147.75 388.062V392H146.745V383.273H147.75V386.477H147.836C147.989 386.139 148.219 385.871 148.526 385.672C148.836 385.47 149.248 385.369 149.762 385.369C150.208 385.369 150.598 385.459 150.934 385.638C151.269 385.814 151.529 386.085 151.713 386.452C151.901 386.815 151.995 387.278 151.995 387.841V392H150.989V387.909C150.989 387.389 150.854 386.987 150.584 386.703C150.317 386.416 149.946 386.273 149.472 386.273C149.142 386.273 148.847 386.342 148.586 386.482C148.327 386.621 148.123 386.824 147.972 387.091C147.824 387.358 147.75 387.682 147.75 388.062ZM156.494 392.136C155.903 392.136 155.384 391.996 154.938 391.714C154.495 391.433 154.148 391.04 153.898 390.534C153.651 390.028 153.528 389.437 153.528 388.761C153.528 388.08 153.651 387.484 153.898 386.976C154.148 386.467 154.495 386.072 154.938 385.791C155.384 385.51 155.903 385.369 156.494 385.369C157.085 385.369 157.602 385.51 158.045 385.791C158.491 386.072 158.837 386.467 159.085 386.976C159.335 387.484 159.46 388.08 159.46 388.761C159.46 389.437 159.335 390.028 159.085 390.534C158.837 391.04 158.491 391.433 158.045 391.714C157.602 391.996 157.085 392.136 156.494 392.136ZM156.494 391.233C156.942 391.233 157.312 391.118 157.602 390.888C157.891 390.658 158.106 390.355 158.245 389.98C158.384 389.605 158.454 389.199 158.454 388.761C158.454 388.324 158.384 387.916 158.245 387.538C158.106 387.161 157.891 386.855 157.602 386.622C157.312 386.389 156.942 386.273 156.494 386.273C156.045 386.273 155.675 386.389 155.386 386.622C155.096 386.855 154.881 387.161 154.742 387.538C154.603 387.916 154.533 388.324 154.533 388.761C154.533 389.199 154.603 389.605 154.742 389.98C154.881 390.355 155.096 390.658 155.386 390.888C155.675 391.118 156.045 391.233 156.494 391.233ZM162 388.062V392H160.995V385.455H161.966V386.477H162.051C162.205 386.145 162.438 385.878 162.75 385.676C163.063 385.472 163.466 385.369 163.961 385.369C164.404 385.369 164.792 385.46 165.124 385.642C165.456 385.821 165.715 386.094 165.9 386.46C166.084 386.824 166.176 387.284 166.176 387.841V392H165.171V387.909C165.171 387.395 165.037 386.994 164.77 386.707C164.503 386.418 164.137 386.273 163.671 386.273C163.35 386.273 163.063 386.342 162.81 386.482C162.56 386.621 162.363 386.824 162.218 387.091C162.073 387.358 162 387.682 162 388.062ZM170.759 392.136C170.128 392.136 169.584 391.997 169.126 391.719C168.672 391.438 168.321 391.045 168.074 390.543C167.83 390.037 167.707 389.449 167.707 388.778C167.707 388.108 167.83 387.517 168.074 387.006C168.321 386.491 168.665 386.091 169.105 385.804C169.548 385.514 170.065 385.369 170.656 385.369C170.997 385.369 171.334 385.426 171.666 385.54C171.999 385.653 172.301 385.838 172.574 386.094C172.847 386.347 173.064 386.682 173.226 387.099C173.388 387.517 173.469 388.031 173.469 388.642V389.068H168.423V388.199H172.446C172.446 387.83 172.372 387.5 172.224 387.21C172.08 386.92 171.872 386.692 171.602 386.524C171.335 386.357 171.02 386.273 170.656 386.273C170.256 386.273 169.909 386.372 169.616 386.571C169.327 386.767 169.104 387.023 168.947 387.338C168.791 387.653 168.713 387.991 168.713 388.352V388.932C168.713 389.426 168.798 389.845 168.969 390.189C169.142 390.53 169.382 390.79 169.689 390.969C169.996 391.145 170.352 391.233 170.759 391.233C171.023 391.233 171.261 391.196 171.474 391.122C171.69 391.045 171.876 390.932 172.033 390.781C172.189 390.628 172.31 390.437 172.395 390.21L173.366 390.483C173.264 390.812 173.092 391.102 172.851 391.352C172.609 391.599 172.311 391.793 171.956 391.932C171.601 392.068 171.202 392.136 170.759 392.136ZM185.43 383.273V392H184.408L179.652 385.148H179.567V392H178.51V383.273H179.533L184.305 390.142H184.391V383.273H185.43ZM191.534 389.324V385.455H192.539V392H191.534V390.892H191.466C191.312 391.224 191.074 391.507 190.75 391.74C190.426 391.97 190.017 392.085 189.522 392.085C189.113 392.085 188.75 391.996 188.431 391.817C188.113 391.635 187.863 391.362 187.681 390.999C187.5 390.632 187.409 390.17 187.409 389.614V385.455H188.414V389.545C188.414 390.023 188.548 390.403 188.815 390.688C189.085 390.972 189.429 391.114 189.846 391.114C190.096 391.114 190.35 391.05 190.609 390.922C190.87 390.794 191.089 390.598 191.265 390.334C191.444 390.07 191.534 389.733 191.534 389.324ZM194.381 392V385.455H195.353V386.477H195.438C195.575 386.128 195.795 385.857 196.099 385.663C196.403 385.467 196.768 385.369 197.194 385.369C197.626 385.369 197.985 385.467 198.272 385.663C198.562 385.857 198.788 386.128 198.95 386.477H199.018C199.185 386.139 199.437 385.871 199.772 385.672C200.107 385.47 200.509 385.369 200.978 385.369C201.563 385.369 202.042 385.553 202.414 385.919C202.786 386.283 202.972 386.849 202.972 387.619V392H201.967V387.619C201.967 387.136 201.835 386.791 201.57 386.584C201.306 386.376 200.995 386.273 200.637 386.273C200.177 386.273 199.82 386.412 199.567 386.69C199.315 386.966 199.188 387.315 199.188 387.739V392H198.165V387.517C198.165 387.145 198.045 386.845 197.803 386.618C197.562 386.388 197.251 386.273 196.87 386.273C196.609 386.273 196.364 386.342 196.137 386.482C195.913 386.621 195.731 386.814 195.592 387.061C195.455 387.305 195.387 387.588 195.387 387.909V392H194.381ZM204.947 392V383.273H205.953V386.494H206.038C206.112 386.381 206.214 386.236 206.345 386.06C206.479 385.881 206.669 385.722 206.916 385.582C207.166 385.44 207.504 385.369 207.93 385.369C208.482 385.369 208.967 385.507 209.388 385.783C209.808 386.058 210.136 386.449 210.372 386.955C210.608 387.46 210.726 388.057 210.726 388.744C210.726 389.438 210.608 390.038 210.372 390.547C210.136 391.053 209.81 391.445 209.392 391.723C208.974 391.999 208.493 392.136 207.947 392.136C207.527 392.136 207.19 392.067 206.938 391.928C206.685 391.786 206.49 391.625 206.354 391.446C206.217 391.264 206.112 391.114 206.038 390.994H205.919V392H204.947ZM205.936 388.727C205.936 389.222 206.009 389.658 206.153 390.036C206.298 390.411 206.51 390.705 206.788 390.918C207.067 391.128 207.408 391.233 207.811 391.233C208.232 391.233 208.582 391.122 208.864 390.901C209.148 390.676 209.361 390.375 209.503 389.997C209.648 389.616 209.72 389.193 209.72 388.727C209.72 388.267 209.649 387.852 209.507 387.483C209.368 387.111 209.156 386.817 208.872 386.601C208.591 386.382 208.237 386.273 207.811 386.273C207.402 386.273 207.058 386.376 206.78 386.584C206.501 386.788 206.291 387.075 206.149 387.445C206.007 387.811 205.936 388.239 205.936 388.727ZM215.009 392.136C214.378 392.136 213.834 391.997 213.376 391.719C212.922 391.438 212.571 391.045 212.324 390.543C212.08 390.037 211.957 389.449 211.957 388.778C211.957 388.108 212.08 387.517 212.324 387.006C212.571 386.491 212.915 386.091 213.355 385.804C213.798 385.514 214.315 385.369 214.906 385.369C215.247 385.369 215.584 385.426 215.916 385.54C216.249 385.653 216.551 385.838 216.824 386.094C217.097 386.347 217.314 386.682 217.476 387.099C217.638 387.517 217.719 388.031 217.719 388.642V389.068H212.673V388.199H216.696C216.696 387.83 216.622 387.5 216.474 387.21C216.33 386.92 216.122 386.692 215.852 386.524C215.585 386.357 215.27 386.273 214.906 386.273C214.506 386.273 214.159 386.372 213.866 386.571C213.577 386.767 213.354 387.023 213.197 387.338C213.041 387.653 212.963 387.991 212.963 388.352V388.932C212.963 389.426 213.048 389.845 213.219 390.189C213.392 390.53 213.632 390.79 213.939 390.969C214.246 391.145 214.602 391.233 215.009 391.233C215.273 391.233 215.511 391.196 215.724 391.122C215.94 391.045 216.126 390.932 216.283 390.781C216.439 390.628 216.56 390.437 216.645 390.21L217.616 390.483C217.514 390.812 217.342 391.102 217.101 391.352C216.859 391.599 216.561 391.793 216.206 391.932C215.851 392.068 215.452 392.136 215.009 392.136ZM219.249 392V385.455H220.22V386.443H220.288C220.408 386.119 220.624 385.857 220.936 385.655C221.249 385.453 221.601 385.352 221.993 385.352C222.067 385.352 222.159 385.354 222.27 385.357C222.381 385.359 222.464 385.364 222.521 385.369V386.392C222.487 386.384 222.409 386.371 222.287 386.354C222.168 386.334 222.041 386.324 221.908 386.324C221.589 386.324 221.305 386.391 221.055 386.524C220.808 386.655 220.612 386.837 220.467 387.07C220.325 387.3 220.254 387.562 220.254 387.858V392H219.249Z" fill="white"/>
<path d="M538.944 -185.96C577.428 -458.849 339.305 -130.292 66.4149 -168.776C-206.475 -207.259 -474.579 -482.484 -513.063 -209.594C-551.546 63.2955 -546.653 74.4986 -273.763 112.982C-0.872954 151.466 500.461 86.9304 538.944 -185.96Z" fill="#E04D01"/>
<circle cx="180" cy="74" r="35" fill="#D9D9D9"/>
<rect x="100" y="129" width="160" height="46" fill="#2A2550"/>
<path d="M139.781 164.384C138.117 164.384 136.623 164.117 135.301 163.584C133.978 163.029 132.837 162.251 131.877 161.248C130.938 160.224 130.213 158.997 129.701 157.568C129.189 156.139 128.933 154.549 128.933 152.8C128.933 151.136 129.189 149.632 129.701 148.288C130.234 146.944 130.991 145.792 131.973 144.832C132.954 143.872 134.127 143.125 135.493 142.592C136.858 142.037 138.394 141.749 140.101 141.728C140.762 141.728 141.434 141.792 142.117 141.92C142.821 142.048 143.493 142.229 144.133 142.464C144.773 142.699 145.349 142.976 145.861 143.296C146.223 143.531 146.533 143.776 146.789 144.032C147.045 144.267 147.183 144.512 147.205 144.768C147.226 144.896 147.205 145.056 147.141 145.248C147.077 145.44 146.991 145.621 146.885 145.792C146.714 146.048 146.522 146.24 146.309 146.368C146.117 146.475 145.925 146.528 145.733 146.528C145.647 146.528 145.498 146.475 145.285 146.368C145.071 146.261 144.805 146.101 144.485 145.888C144.122 145.675 143.695 145.472 143.205 145.28C142.735 145.088 142.223 144.939 141.669 144.832C141.114 144.725 140.538 144.672 139.941 144.672C138.298 144.672 136.869 145.003 135.653 145.664C134.437 146.325 133.498 147.275 132.837 148.512C132.197 149.749 131.866 151.211 131.845 152.896C131.866 154.645 132.207 156.16 132.869 157.44C133.53 158.72 134.458 159.712 135.653 160.416C136.869 161.12 138.287 161.472 139.909 161.472C140.442 161.472 140.986 161.429 141.541 161.344C142.095 161.259 142.639 161.141 143.173 160.992C143.727 160.821 144.239 160.619 144.709 160.384V154.208H139.109C138.831 154.208 138.586 154.176 138.373 154.112C138.181 154.048 138.031 153.92 137.925 153.728C137.839 153.536 137.797 153.248 137.797 152.864C137.797 152.48 137.85 152.192 137.957 152C138.063 151.808 138.213 151.68 138.405 151.616C138.597 151.552 138.831 151.52 139.109 151.52H146.053C146.479 151.52 146.799 151.595 147.013 151.744C147.226 151.893 147.375 152.085 147.461 152.32C147.567 152.533 147.621 152.8 147.621 153.12V160.992C147.621 161.333 147.429 161.696 147.045 162.08C146.682 162.443 146.159 162.784 145.477 163.104C144.986 163.36 144.431 163.584 143.813 163.776C143.215 163.968 142.575 164.117 141.893 164.224C141.21 164.331 140.506 164.384 139.781 164.384ZM153.221 164.32C152.816 164.32 152.506 164.256 152.293 164.128C152.101 164.021 151.973 163.861 151.909 163.648C151.866 163.413 151.845 163.147 151.845 162.848V150.24C151.845 149.92 151.877 149.653 151.941 149.44C152.005 149.227 152.133 149.077 152.325 148.992C152.517 148.885 152.826 148.832 153.253 148.832C153.637 148.832 153.925 148.885 154.117 148.992C154.33 149.077 154.469 149.216 154.533 149.408C154.618 149.579 154.661 149.781 154.661 150.016L154.533 150.976C154.682 150.699 154.853 150.421 155.045 150.144C155.258 149.867 155.514 149.621 155.813 149.408C156.133 149.173 156.506 148.981 156.933 148.832C157.381 148.683 157.925 148.608 158.565 148.608C158.885 148.608 159.184 148.64 159.461 148.704C159.76 148.747 160.037 148.821 160.293 148.928C160.57 149.035 160.805 149.163 160.997 149.312C161.189 149.44 161.338 149.589 161.445 149.76C161.573 149.909 161.637 150.091 161.637 150.304C161.637 150.773 161.488 151.179 161.189 151.52C160.89 151.84 160.581 152 160.261 152C159.984 152 159.781 151.968 159.653 151.904C159.525 151.819 159.397 151.733 159.269 151.648C159.162 151.563 159.002 151.488 158.789 151.424C158.576 151.339 158.234 151.296 157.765 151.296C157.445 151.296 157.104 151.36 156.741 151.488C156.4 151.616 156.069 151.808 155.749 152.064C155.429 152.299 155.162 152.608 154.949 152.992C154.757 153.376 154.661 153.824 154.661 154.336V162.912C154.661 163.211 154.629 163.467 154.565 163.68C154.501 163.893 154.362 164.053 154.149 164.16C153.957 164.267 153.648 164.32 153.221 164.32ZM176.559 164.288C176.09 164.288 175.749 164.192 175.535 164C175.343 163.808 175.226 163.509 175.183 163.104L175.311 161.504C175.098 161.845 174.767 162.24 174.319 162.688C173.871 163.115 173.285 163.499 172.559 163.84C171.834 164.16 170.949 164.32 169.903 164.32C168.879 164.32 167.919 164.117 167.023 163.712C166.149 163.307 165.37 162.741 164.687 162.016C164.026 161.291 163.503 160.459 163.119 159.52C162.757 158.581 162.575 157.579 162.575 156.512C162.575 155.467 162.757 154.485 163.119 153.568C163.503 152.629 164.037 151.808 164.719 151.104C165.402 150.4 166.181 149.845 167.055 149.44C167.951 149.035 168.901 148.832 169.903 148.832C170.842 148.832 171.642 148.96 172.303 149.216C172.965 149.451 173.53 149.771 173.999 150.176C174.49 150.56 174.917 150.997 175.279 151.488L175.215 150.144C175.194 149.675 175.29 149.344 175.503 149.152C175.738 148.939 176.101 148.832 176.591 148.832C176.997 148.832 177.285 148.896 177.455 149.024C177.647 149.152 177.775 149.333 177.839 149.568C177.903 149.803 177.935 150.091 177.935 150.432V162.784C177.935 163.083 177.903 163.349 177.839 163.584C177.775 163.819 177.647 163.989 177.455 164.096C177.263 164.224 176.965 164.288 176.559 164.288ZM170.383 161.632C171.237 161.632 172.015 161.408 172.719 160.96C173.445 160.512 174.01 159.915 174.415 159.168C174.842 158.4 175.055 157.525 175.055 156.544C175.055 155.541 174.831 154.667 174.383 153.92C173.957 153.152 173.381 152.555 172.655 152.128C171.951 151.68 171.173 151.456 170.319 151.456C169.317 151.456 168.442 151.691 167.695 152.16C166.97 152.608 166.394 153.216 165.967 153.984C165.541 154.752 165.327 155.627 165.327 156.608C165.327 157.568 165.541 158.432 165.967 159.2C166.394 159.947 166.981 160.544 167.727 160.992C168.495 161.419 169.381 161.632 170.383 161.632ZM189.654 164.32C188.609 164.32 187.66 164.128 186.806 163.744C185.953 163.36 185.228 162.816 184.63 162.112C184.033 161.408 183.564 160.587 183.222 159.648C182.902 158.709 182.753 157.675 182.774 156.544C182.774 155.435 182.934 154.411 183.254 153.472C183.574 152.512 184.033 151.691 184.63 151.008C185.249 150.304 185.974 149.76 186.806 149.376C187.66 148.992 188.609 148.8 189.654 148.8C190.636 148.8 191.553 148.992 192.406 149.376C193.281 149.76 194.038 150.304 194.678 151.008C195.34 151.691 195.852 152.501 196.214 153.44C196.598 154.379 196.79 155.403 196.79 156.512C196.79 157.643 196.598 158.688 196.214 159.648C195.852 160.587 195.34 161.408 194.678 162.112C194.038 162.816 193.281 163.36 192.406 163.744C191.553 164.128 190.636 164.32 189.654 164.32ZM189.238 161.6C190.134 161.6 190.945 161.387 191.67 160.96C192.396 160.533 192.961 159.947 193.366 159.2C193.793 158.432 194.006 157.557 194.006 156.576C194.006 155.573 193.793 154.699 193.366 153.952C192.961 153.184 192.396 152.587 191.67 152.16C190.966 151.733 190.156 151.52 189.238 151.52C188.342 151.52 187.532 151.733 186.806 152.16C186.102 152.587 185.537 153.184 185.11 153.952C184.705 154.699 184.502 155.573 184.502 156.576C184.502 157.557 184.705 158.432 185.11 159.2C185.537 159.947 186.102 160.533 186.806 160.96C187.532 161.387 188.342 161.6 189.238 161.6ZM182.998 164.352C182.593 164.352 182.284 164.288 182.07 164.16C181.878 164.053 181.75 163.893 181.686 163.68C181.622 163.445 181.59 163.189 181.59 162.912V143.168C181.59 142.848 181.622 142.581 181.686 142.368C181.75 142.155 181.878 141.995 182.07 141.888C182.284 141.76 182.593 141.696 182.998 141.696C183.404 141.696 183.702 141.76 183.894 141.888C184.086 142.016 184.214 142.187 184.278 142.4C184.342 142.613 184.374 142.869 184.374 143.168V163.2C184.332 163.605 184.204 163.893 183.99 164.064C183.798 164.256 183.468 164.352 182.998 164.352ZM201.943 164.32C201.538 164.32 201.229 164.256 201.015 164.128C200.823 164.021 200.695 163.861 200.631 163.648C200.567 163.435 200.535 163.179 200.535 162.88V150.24C200.535 149.941 200.567 149.685 200.631 149.472C200.695 149.259 200.823 149.099 201.015 148.992C201.229 148.885 201.549 148.832 201.975 148.832C202.381 148.832 202.679 148.896 202.871 149.024C203.063 149.131 203.191 149.291 203.255 149.504C203.319 149.717 203.351 149.984 203.351 150.304V162.912C203.351 163.211 203.319 163.467 203.255 163.68C203.191 163.893 203.053 164.053 202.839 164.16C202.647 164.267 202.349 164.32 201.943 164.32ZM201.943 144.992C201.474 144.992 201.122 144.928 200.887 144.8C200.653 144.651 200.493 144.448 200.407 144.192C200.343 143.936 200.311 143.637 200.311 143.296C200.311 142.955 200.354 142.667 200.439 142.432C200.525 142.176 200.685 141.995 200.919 141.888C201.154 141.76 201.506 141.696 201.975 141.696C202.423 141.696 202.765 141.76 202.999 141.888C203.234 142.016 203.383 142.208 203.447 142.464C203.533 142.72 203.575 143.019 203.575 143.36C203.575 143.701 203.533 144 203.447 144.256C203.383 144.491 203.234 144.672 202.999 144.8C202.765 144.928 202.413 144.992 201.943 144.992ZM210.075 164.352C209.691 164.352 209.392 164.288 209.179 164.16C208.987 164.032 208.859 163.861 208.795 163.648C208.731 163.413 208.699 163.147 208.699 162.848V146.784C208.699 145.931 208.795 145.184 208.987 144.544C209.179 143.904 209.499 143.371 209.947 142.944C210.395 142.517 210.96 142.197 211.643 141.984C212.347 141.749 213.211 141.632 214.235 141.632C214.512 141.632 214.757 141.664 214.971 141.728C215.205 141.771 215.376 141.899 215.483 142.112C215.611 142.304 215.675 142.603 215.675 143.008C215.675 143.413 215.611 143.723 215.483 143.936C215.355 144.128 215.184 144.256 214.971 144.32C214.757 144.384 214.501 144.416 214.203 144.416C213.712 144.416 213.285 144.437 212.923 144.48C212.581 144.523 212.315 144.619 212.123 144.768C211.931 144.917 211.781 145.152 211.675 145.472C211.589 145.771 211.547 146.187 211.547 146.72V162.944C211.547 163.221 211.504 163.467 211.419 163.68C211.355 163.893 211.216 164.053 211.003 164.16C210.811 164.288 210.501 164.352 210.075 164.352ZM207.067 149.184L210.139 149.216L214.587 149.152C214.885 149.152 215.141 149.184 215.355 149.248C215.568 149.291 215.728 149.419 215.835 149.632C215.963 149.824 216.027 150.123 216.027 150.528C216.027 150.933 215.973 151.243 215.867 151.456C215.76 151.648 215.6 151.776 215.387 151.84C215.173 151.904 214.917 151.936 214.619 151.936L210.235 151.872L207.003 151.904C206.555 151.904 206.245 151.797 206.075 151.584C205.925 151.371 205.851 151.019 205.851 150.528C205.851 150.059 205.947 149.717 206.139 149.504C206.331 149.291 206.64 149.184 207.067 149.184ZM221.456 170.528C220.944 170.315 220.645 170.069 220.56 169.792C220.474 169.515 220.549 169.131 220.784 168.64L229.264 149.6C229.498 149.109 229.744 148.811 230 148.704C230.277 148.576 230.661 148.619 231.152 148.832C231.664 149.067 231.952 149.323 232.016 149.6C232.101 149.877 232.037 150.251 231.824 150.72L223.28 169.856C223.066 170.347 222.832 170.635 222.576 170.72C222.32 170.805 221.946 170.741 221.456 170.528ZM224.624 162.272L217.296 150.976C217.018 150.549 216.912 150.197 216.976 149.92C217.04 149.621 217.285 149.333 217.712 149.056C218.181 148.757 218.554 148.651 218.832 148.736C219.13 148.8 219.429 149.045 219.728 149.472L225.936 159.232L224.624 162.272Z" fill="white"/>
<rect x="125" y="456" width="110" height="35" rx="15" fill="#E04D01"/>
<path d="M167.292 471.455C167.241 471.023 167.034 470.688 166.67 470.449C166.307 470.21 165.861 470.091 165.332 470.091C164.946 470.091 164.608 470.153 164.318 470.278C164.031 470.403 163.807 470.575 163.645 470.794C163.486 471.013 163.406 471.261 163.406 471.54C163.406 471.773 163.461 471.973 163.572 472.141C163.686 472.305 163.831 472.443 164.007 472.554C164.183 472.662 164.368 472.751 164.561 472.822C164.754 472.891 164.932 472.946 165.094 472.989L165.98 473.227C166.207 473.287 166.46 473.369 166.738 473.474C167.02 473.58 167.288 473.723 167.544 473.905C167.802 474.084 168.015 474.314 168.183 474.595C168.351 474.876 168.434 475.222 168.434 475.631C168.434 476.102 168.311 476.528 168.064 476.909C167.819 477.29 167.461 477.592 166.99 477.817C166.521 478.041 165.952 478.153 165.281 478.153C164.656 478.153 164.115 478.053 163.657 477.851C163.203 477.649 162.845 477.368 162.584 477.007C162.325 476.646 162.179 476.227 162.145 475.75H163.236C163.264 476.08 163.375 476.352 163.568 476.568C163.764 476.781 164.011 476.94 164.309 477.045C164.611 477.148 164.934 477.199 165.281 477.199C165.684 477.199 166.047 477.134 166.368 477.003C166.689 476.869 166.943 476.685 167.131 476.449C167.318 476.21 167.412 475.932 167.412 475.614C167.412 475.324 167.331 475.088 167.169 474.906C167.007 474.724 166.794 474.577 166.53 474.463C166.265 474.349 165.98 474.25 165.673 474.165L164.599 473.858C163.917 473.662 163.378 473.382 162.98 473.018C162.582 472.655 162.383 472.179 162.383 471.591C162.383 471.102 162.515 470.676 162.78 470.312C163.047 469.946 163.405 469.662 163.854 469.46C164.305 469.256 164.809 469.153 165.366 469.153C165.929 469.153 166.429 469.254 166.866 469.456C167.304 469.655 167.65 469.928 167.906 470.274C168.165 470.621 168.301 471.014 168.315 471.455H167.292ZM170.036 478V471.455H171.041V478H170.036ZM170.547 470.364C170.351 470.364 170.182 470.297 170.04 470.163C169.901 470.03 169.831 469.869 169.831 469.682C169.831 469.494 169.901 469.334 170.04 469.2C170.182 469.067 170.351 469 170.547 469C170.743 469 170.911 469.067 171.05 469.2C171.192 469.334 171.263 469.494 171.263 469.682C171.263 469.869 171.192 470.03 171.05 470.163C170.911 470.297 170.743 470.364 170.547 470.364ZM175.525 480.591C175.04 480.591 174.622 480.528 174.273 480.403C173.923 480.281 173.632 480.119 173.399 479.918C173.169 479.719 172.986 479.506 172.849 479.278L173.65 478.716C173.741 478.835 173.856 478.972 173.996 479.125C174.135 479.281 174.325 479.416 174.567 479.53C174.811 479.646 175.131 479.705 175.525 479.705C176.054 479.705 176.49 479.577 176.834 479.321C177.177 479.065 177.349 478.665 177.349 478.119V476.79H177.264C177.19 476.909 177.085 477.057 176.949 477.233C176.815 477.406 176.622 477.561 176.369 477.697C176.119 477.831 175.781 477.898 175.355 477.898C174.827 477.898 174.352 477.773 173.932 477.523C173.514 477.273 173.183 476.909 172.939 476.432C172.697 475.955 172.577 475.375 172.577 474.693C172.577 474.023 172.694 473.439 172.93 472.942C173.166 472.442 173.494 472.055 173.915 471.783C174.335 471.507 174.821 471.369 175.372 471.369C175.798 471.369 176.136 471.44 176.386 471.582C176.639 471.722 176.832 471.881 176.966 472.06C177.102 472.236 177.207 472.381 177.281 472.494H177.383V471.455H178.355V478.188C178.355 478.75 178.227 479.207 177.971 479.56C177.719 479.915 177.378 480.175 176.949 480.339C176.523 480.507 176.048 480.591 175.525 480.591ZM175.491 476.994C175.895 476.994 176.236 476.902 176.514 476.717C176.792 476.533 177.004 476.267 177.149 475.92C177.294 475.574 177.366 475.159 177.366 474.676C177.366 474.205 177.295 473.788 177.153 473.428C177.011 473.067 176.801 472.784 176.523 472.58C176.244 472.375 175.9 472.273 175.491 472.273C175.065 472.273 174.71 472.381 174.426 472.597C174.145 472.812 173.933 473.102 173.791 473.466C173.652 473.83 173.582 474.233 173.582 474.676C173.582 475.131 173.653 475.533 173.795 475.882C173.94 476.229 174.153 476.501 174.434 476.7C174.719 476.896 175.071 476.994 175.491 476.994ZM181.202 474.062V478H180.196V471.455H181.167V472.477H181.253C181.406 472.145 181.639 471.878 181.952 471.676C182.264 471.472 182.667 471.369 183.162 471.369C183.605 471.369 183.993 471.46 184.325 471.642C184.657 471.821 184.916 472.094 185.101 472.46C185.285 472.824 185.378 473.284 185.378 473.841V478H184.372V473.909C184.372 473.395 184.238 472.994 183.971 472.707C183.704 472.418 183.338 472.273 182.872 472.273C182.551 472.273 182.264 472.342 182.011 472.482C181.761 472.621 181.564 472.824 181.419 473.091C181.274 473.358 181.202 473.682 181.202 474.062ZM190.59 478V471.455H191.596V478H190.59ZM191.102 470.364C190.906 470.364 190.737 470.297 190.595 470.163C190.455 470.03 190.386 469.869 190.386 469.682C190.386 469.494 190.455 469.334 190.595 469.2C190.737 469.067 190.906 469 191.102 469C191.298 469 191.465 469.067 191.605 469.2C191.747 469.334 191.818 469.494 191.818 469.682C191.818 469.869 191.747 470.03 191.605 470.163C191.465 470.297 191.298 470.364 191.102 470.364ZM194.444 474.062V478H193.438V471.455H194.41V472.477H194.495C194.648 472.145 194.881 471.878 195.194 471.676C195.506 471.472 195.91 471.369 196.404 471.369C196.847 471.369 197.235 471.46 197.567 471.642C197.9 471.821 198.158 472.094 198.343 472.46C198.528 472.824 198.62 473.284 198.62 473.841V478H197.614V473.909C197.614 473.395 197.481 472.994 197.214 472.707C196.947 472.418 196.58 472.273 196.114 472.273C195.793 472.273 195.506 472.342 195.253 472.482C195.003 472.621 194.806 472.824 194.661 473.091C194.516 473.358 194.444 473.682 194.444 474.062Z" fill="white"/>
<path d="M87.1737 436V428.727H91.5344V429.509H88.0543V431.966H91.2077V432.747H88.0543V436H87.1737ZM94.7447 436.114C94.2522 436.114 93.8202 435.996 93.4485 435.762C93.0792 435.528 92.7904 435.2 92.582 434.778C92.3761 434.357 92.2731 433.865 92.2731 433.301C92.2731 432.733 92.3761 432.237 92.582 431.813C92.7904 431.389 93.0792 431.06 93.4485 430.826C93.8202 430.592 94.2522 430.474 94.7447 430.474C95.2371 430.474 95.668 430.592 96.0373 430.826C96.409 431.06 96.6978 431.389 96.9038 431.813C97.1121 432.237 97.2163 432.733 97.2163 433.301C97.2163 433.865 97.1121 434.357 96.9038 434.778C96.6978 435.2 96.409 435.528 96.0373 435.762C95.668 435.996 95.2371 436.114 94.7447 436.114ZM94.7447 435.361C95.1187 435.361 95.4265 435.265 95.668 435.073C95.9094 434.881 96.0882 434.629 96.2042 434.317C96.3202 434.004 96.3782 433.666 96.3782 433.301C96.3782 432.937 96.3202 432.597 96.2042 432.282C96.0882 431.967 95.9094 431.713 95.668 431.518C95.4265 431.324 95.1187 431.227 94.7447 431.227C94.3706 431.227 94.0629 431.324 93.8214 431.518C93.5799 431.713 93.4012 431.967 93.2852 432.282C93.1692 432.597 93.1112 432.937 93.1112 433.301C93.1112 433.666 93.1692 434.004 93.2852 434.317C93.4012 434.629 93.5799 434.881 93.8214 435.073C94.0629 435.265 94.3706 435.361 94.7447 435.361ZM98.4956 436V430.545H99.3052V431.369H99.362C99.4615 431.099 99.6414 430.88 99.9018 430.712C100.162 430.544 100.456 430.46 100.782 430.46C100.844 430.46 100.921 430.461 101.013 430.464C101.106 430.466 101.175 430.47 101.223 430.474V431.327C101.194 431.32 101.129 431.309 101.028 431.295C100.928 431.278 100.823 431.27 100.711 431.27C100.446 431.27 100.21 431.326 100.001 431.437C99.7953 431.546 99.6319 431.697 99.5112 431.891C99.3928 432.083 99.3336 432.302 99.3336 432.548V436H98.4956ZM104.252 438.159C103.847 438.159 103.499 438.107 103.208 438.003C102.917 437.901 102.674 437.766 102.48 437.598C102.288 437.432 102.135 437.255 102.022 437.065L102.689 436.597C102.765 436.696 102.861 436.81 102.977 436.938C103.093 437.068 103.252 437.18 103.453 437.275C103.657 437.372 103.923 437.42 104.252 437.42C104.692 437.42 105.056 437.314 105.342 437.101C105.629 436.888 105.772 436.554 105.772 436.099V434.991H105.701C105.639 435.091 105.552 435.214 105.438 435.361C105.327 435.505 105.166 435.634 104.955 435.748C104.747 435.859 104.465 435.915 104.11 435.915C103.67 435.915 103.274 435.811 102.924 435.602C102.576 435.394 102.3 435.091 102.096 434.693C101.895 434.295 101.795 433.812 101.795 433.244C101.795 432.686 101.893 432.199 102.089 431.785C102.286 431.368 102.559 431.046 102.91 430.819C103.26 430.589 103.665 430.474 104.124 430.474C104.479 430.474 104.761 430.534 104.969 430.652C105.18 430.768 105.341 430.901 105.452 431.05C105.566 431.196 105.653 431.317 105.715 431.412H105.8V430.545H106.61V436.156C106.61 436.625 106.503 437.006 106.29 437.3C106.08 437.596 105.796 437.812 105.438 437.95C105.083 438.089 104.688 438.159 104.252 438.159ZM104.224 435.162C104.56 435.162 104.844 435.085 105.076 434.931C105.308 434.777 105.484 434.556 105.605 434.267C105.726 433.978 105.786 433.633 105.786 433.23C105.786 432.837 105.727 432.49 105.608 432.19C105.49 431.889 105.315 431.653 105.083 431.483C104.851 431.312 104.564 431.227 104.224 431.227C103.868 431.227 103.573 431.317 103.336 431.497C103.101 431.677 102.925 431.919 102.807 432.222C102.691 432.525 102.633 432.861 102.633 433.23C102.633 433.609 102.692 433.944 102.81 434.235C102.931 434.524 103.108 434.751 103.343 434.917C103.58 435.08 103.873 435.162 104.224 435.162ZM110.36 436.114C109.867 436.114 109.435 435.996 109.064 435.762C108.694 435.528 108.406 435.2 108.197 434.778C107.991 434.357 107.888 433.865 107.888 433.301C107.888 432.733 107.991 432.237 108.197 431.813C108.406 431.389 108.694 431.06 109.064 430.826C109.435 430.592 109.867 430.474 110.36 430.474C110.852 430.474 111.283 430.592 111.653 430.826C112.024 431.06 112.313 431.389 112.519 431.813C112.727 432.237 112.831 432.733 112.831 433.301C112.831 433.865 112.727 434.357 112.519 434.778C112.313 435.2 112.024 435.528 111.653 435.762C111.283 435.996 110.852 436.114 110.36 436.114ZM110.36 435.361C110.734 435.361 111.042 435.265 111.283 435.073C111.525 434.881 111.703 434.629 111.819 434.317C111.935 434.004 111.993 433.666 111.993 433.301C111.993 432.937 111.935 432.597 111.819 432.282C111.703 431.967 111.525 431.713 111.283 431.518C111.042 431.324 110.734 431.227 110.36 431.227C109.986 431.227 109.678 431.324 109.437 431.518C109.195 431.713 109.016 431.967 108.9 432.282C108.784 432.597 108.726 432.937 108.726 433.301C108.726 433.666 108.784 434.004 108.9 434.317C109.016 434.629 109.195 434.881 109.437 435.073C109.678 435.265 109.986 435.361 110.36 435.361ZM116.483 430.545V431.256H113.656V430.545H116.483ZM114.48 429.239H115.318V434.438C115.318 434.674 115.353 434.852 115.421 434.97C115.492 435.086 115.582 435.164 115.691 435.205C115.802 435.242 115.92 435.261 116.043 435.261C116.135 435.261 116.211 435.257 116.27 435.247C116.329 435.235 116.376 435.226 116.412 435.219L116.582 435.972C116.526 435.993 116.446 436.014 116.344 436.036C116.243 436.059 116.114 436.071 115.957 436.071C115.721 436.071 115.489 436.02 115.261 435.918C115.036 435.817 114.849 435.661 114.7 435.453C114.554 435.245 114.48 434.982 114.48 434.665V429.239ZM120.556 438.045V430.545H121.366V431.412H121.465C121.527 431.317 121.612 431.196 121.721 431.05C121.832 430.901 121.991 430.768 122.197 430.652C122.405 430.534 122.687 430.474 123.042 430.474C123.501 430.474 123.906 430.589 124.256 430.819C124.607 431.049 124.88 431.374 125.077 431.795C125.273 432.217 125.371 432.714 125.371 433.287C125.371 433.865 125.273 434.365 125.077 434.789C124.88 435.21 124.608 435.537 124.26 435.769C123.912 435.999 123.511 436.114 123.056 436.114C122.706 436.114 122.425 436.056 122.214 435.94C122.004 435.821 121.842 435.687 121.728 435.538C121.614 435.387 121.527 435.261 121.465 435.162H121.394V438.045H120.556ZM121.38 433.273C121.38 433.685 121.44 434.048 121.561 434.363C121.682 434.675 121.858 434.92 122.09 435.098C122.322 435.273 122.606 435.361 122.942 435.361C123.293 435.361 123.585 435.268 123.82 435.084C124.056 434.897 124.234 434.646 124.352 434.331C124.473 434.014 124.533 433.661 124.533 433.273C124.533 432.889 124.474 432.544 124.356 432.236C124.24 431.926 124.063 431.681 123.827 431.501C123.592 431.318 123.298 431.227 122.942 431.227C122.602 431.227 122.315 431.314 122.083 431.487C121.851 431.657 121.676 431.896 121.558 432.204C121.439 432.509 121.38 432.866 121.38 433.273ZM128.255 436.128C127.909 436.128 127.596 436.063 127.314 435.933C127.032 435.8 126.808 435.609 126.643 435.361C126.477 435.11 126.394 434.807 126.394 434.452C126.394 434.139 126.456 433.886 126.579 433.692C126.702 433.495 126.866 433.341 127.072 433.23C127.278 433.119 127.506 433.036 127.754 432.982C128.005 432.925 128.257 432.88 128.511 432.847C128.842 432.804 129.111 432.772 129.317 432.751C129.525 432.727 129.677 432.688 129.771 432.634C129.868 432.579 129.917 432.484 129.917 432.349V432.321C129.917 431.971 129.821 431.698 129.629 431.504C129.44 431.31 129.152 431.213 128.766 431.213C128.366 431.213 128.053 431.301 127.825 431.476C127.598 431.651 127.438 431.838 127.346 432.037L126.55 431.753C126.692 431.421 126.882 431.163 127.119 430.979C127.358 430.792 127.618 430.661 127.9 430.588C128.184 430.512 128.463 430.474 128.738 430.474C128.913 430.474 129.114 430.496 129.342 430.538C129.571 430.579 129.793 430.663 130.006 430.79C130.221 430.918 130.4 431.111 130.542 431.369C130.684 431.627 130.755 431.973 130.755 432.406V436H129.917V435.261H129.874C129.817 435.38 129.723 435.506 129.59 435.641C129.458 435.776 129.281 435.891 129.061 435.986C128.841 436.08 128.572 436.128 128.255 436.128ZM128.383 435.375C128.714 435.375 128.994 435.31 129.221 435.18C129.451 435.049 129.623 434.881 129.739 434.675C129.858 434.469 129.917 434.253 129.917 434.026V433.259C129.881 433.301 129.803 433.34 129.683 433.376C129.564 433.409 129.427 433.438 129.271 433.464C129.117 433.488 128.966 433.509 128.82 433.528C128.675 433.545 128.558 433.559 128.468 433.571C128.25 433.599 128.047 433.646 127.857 433.71C127.67 433.771 127.519 433.865 127.403 433.99C127.289 434.113 127.232 434.281 127.232 434.494C127.232 434.786 127.34 435.006 127.555 435.155C127.773 435.302 128.049 435.375 128.383 435.375ZM136.148 431.767L135.395 431.98C135.348 431.855 135.278 431.733 135.186 431.614C135.096 431.494 134.973 431.394 134.817 431.316C134.66 431.238 134.46 431.199 134.216 431.199C133.883 431.199 133.604 431.276 133.382 431.43C133.162 431.581 133.052 431.774 133.052 432.009C133.052 432.217 133.127 432.381 133.279 432.502C133.43 432.623 133.667 432.723 133.989 432.804L134.799 433.003C135.287 433.121 135.65 433.302 135.889 433.546C136.128 433.788 136.248 434.099 136.248 434.48C136.248 434.793 136.158 435.072 135.978 435.318C135.8 435.564 135.552 435.759 135.232 435.901C134.912 436.043 134.541 436.114 134.117 436.114C133.561 436.114 133.1 435.993 132.736 435.751C132.371 435.51 132.14 435.157 132.043 434.693L132.839 434.494C132.914 434.788 133.058 435.008 133.268 435.155C133.481 435.302 133.76 435.375 134.103 435.375C134.493 435.375 134.804 435.292 135.033 435.126C135.265 434.958 135.381 434.757 135.381 434.523C135.381 434.333 135.315 434.175 135.182 434.047C135.05 433.917 134.846 433.82 134.572 433.756L133.662 433.543C133.163 433.424 132.796 433.241 132.562 432.992C132.33 432.741 132.214 432.428 132.214 432.051C132.214 431.743 132.3 431.471 132.473 431.234C132.648 430.998 132.886 430.812 133.187 430.677C133.49 430.542 133.833 430.474 134.216 430.474C134.756 430.474 135.18 430.593 135.488 430.83C135.798 431.066 136.018 431.379 136.148 431.767ZM141.373 431.767L140.62 431.98C140.573 431.855 140.503 431.733 140.411 431.614C140.321 431.494 140.197 431.394 140.041 431.316C139.885 431.238 139.685 431.199 139.441 431.199C139.107 431.199 138.829 431.276 138.607 431.43C138.386 431.581 138.276 431.774 138.276 432.009C138.276 432.217 138.352 432.381 138.504 432.502C138.655 432.623 138.892 432.723 139.214 432.804L140.023 433.003C140.511 433.121 140.875 433.302 141.114 433.546C141.353 433.788 141.472 434.099 141.472 434.48C141.472 434.793 141.382 435.072 141.202 435.318C141.025 435.564 140.776 435.759 140.457 435.901C140.137 436.043 139.765 436.114 139.342 436.114C138.785 436.114 138.325 435.993 137.96 435.751C137.596 435.51 137.365 435.157 137.268 434.693L138.063 434.494C138.139 434.788 138.282 435.008 138.493 435.155C138.706 435.302 138.984 435.375 139.327 435.375C139.718 435.375 140.028 435.292 140.258 435.126C140.49 434.958 140.606 434.757 140.606 434.523C140.606 434.333 140.54 434.175 140.407 434.047C140.274 433.917 140.071 433.82 139.796 433.756L138.887 433.543C138.388 433.424 138.021 433.241 137.786 432.992C137.554 432.741 137.438 432.428 137.438 432.051C137.438 431.743 137.525 431.471 137.697 431.234C137.873 430.998 138.111 430.812 138.411 430.677C138.714 430.542 139.058 430.474 139.441 430.474C139.981 430.474 140.405 430.593 140.712 430.83C141.022 431.066 141.243 431.379 141.373 431.767ZM143.97 436L142.308 430.545H143.188L144.367 434.722H144.424L145.589 430.545H146.484L147.634 434.707H147.691L148.87 430.545H149.751L148.089 436H147.265L146.072 431.81H145.987L144.794 436H143.97ZM152.889 436.114C152.397 436.114 151.965 435.996 151.593 435.762C151.224 435.528 150.935 435.2 150.727 434.778C150.521 434.357 150.418 433.865 150.418 433.301C150.418 432.733 150.521 432.237 150.727 431.813C150.935 431.389 151.224 431.06 151.593 430.826C151.965 430.592 152.397 430.474 152.889 430.474C153.382 430.474 153.813 430.592 154.182 430.826C154.554 431.06 154.842 431.389 155.048 431.813C155.257 432.237 155.361 432.733 155.361 433.301C155.361 433.865 155.257 434.357 155.048 434.778C154.842 435.2 154.554 435.528 154.182 435.762C153.813 435.996 153.382 436.114 152.889 436.114ZM152.889 435.361C153.263 435.361 153.571 435.265 153.812 435.073C154.054 434.881 154.233 434.629 154.349 434.317C154.465 434.004 154.523 433.666 154.523 433.301C154.523 432.937 154.465 432.597 154.349 432.282C154.233 431.967 154.054 431.713 153.812 431.518C153.571 431.324 153.263 431.227 152.889 431.227C152.515 431.227 152.207 431.324 151.966 431.518C151.724 431.713 151.546 431.967 151.43 432.282C151.314 432.597 151.256 432.937 151.256 433.301C151.256 433.666 151.314 434.004 151.43 434.317C151.546 434.629 151.724 434.881 151.966 435.073C152.207 435.265 152.515 435.361 152.889 435.361ZM156.64 436V430.545H157.45V431.369H157.507C157.606 431.099 157.786 430.88 158.046 430.712C158.307 430.544 158.6 430.46 158.927 430.46C158.989 430.46 159.066 430.461 159.158 430.464C159.25 430.466 159.32 430.47 159.367 430.474V431.327C159.339 431.32 159.274 431.309 159.172 431.295C159.073 431.278 158.967 431.27 158.856 431.27C158.591 431.27 158.354 431.326 158.146 431.437C157.94 431.546 157.776 431.697 157.656 431.891C157.537 432.083 157.478 432.302 157.478 432.548V436H156.64ZM162.254 436.114C161.8 436.114 161.399 435.999 161.051 435.769C160.703 435.537 160.43 435.21 160.234 434.789C160.037 434.365 159.939 433.865 159.939 433.287C159.939 432.714 160.037 432.217 160.234 431.795C160.43 431.374 160.704 431.049 161.054 430.819C161.405 430.589 161.809 430.474 162.269 430.474C162.624 430.474 162.904 430.534 163.11 430.652C163.319 430.768 163.477 430.901 163.586 431.05C163.697 431.196 163.784 431.317 163.845 431.412H163.916V428.727H164.754V436H163.945V435.162H163.845C163.784 435.261 163.696 435.387 163.583 435.538C163.469 435.687 163.307 435.821 163.096 435.94C162.885 436.056 162.605 436.114 162.254 436.114ZM162.368 435.361C162.704 435.361 162.988 435.273 163.22 435.098C163.452 434.92 163.629 434.675 163.749 434.363C163.87 434.048 163.931 433.685 163.931 433.273C163.931 432.866 163.871 432.509 163.753 432.204C163.635 431.896 163.459 431.657 163.227 431.487C162.995 431.314 162.709 431.227 162.368 431.227C162.013 431.227 161.717 431.318 161.48 431.501C161.246 431.681 161.07 431.926 160.951 432.236C160.835 432.544 160.777 432.889 160.777 433.273C160.777 433.661 160.836 434.014 160.955 434.331C161.075 434.646 161.253 434.897 161.487 435.084C161.724 435.268 162.018 435.361 162.368 435.361ZM167.499 433.955V433.912C167.504 433.46 167.552 433.1 167.642 432.832C167.731 432.565 167.859 432.348 168.025 432.183C168.191 432.017 168.39 431.864 168.622 431.724C168.761 431.639 168.887 431.539 168.998 431.423C169.109 431.304 169.197 431.168 169.261 431.014C169.327 430.86 169.36 430.69 169.36 430.503C169.36 430.271 169.306 430.07 169.197 429.899C169.088 429.729 168.942 429.597 168.76 429.505C168.578 429.413 168.375 429.366 168.153 429.366C167.959 429.366 167.772 429.407 167.592 429.487C167.412 429.568 167.262 429.694 167.141 429.867C167.02 430.04 166.95 430.266 166.931 430.545H166.036C166.055 430.143 166.16 429.799 166.349 429.512C166.541 429.226 166.793 429.007 167.105 428.855C167.42 428.704 167.769 428.628 168.153 428.628C168.57 428.628 168.932 428.711 169.24 428.876C169.55 429.042 169.789 429.269 169.957 429.558C170.127 429.847 170.213 430.176 170.213 430.545C170.213 430.806 170.172 431.041 170.092 431.252C170.014 431.463 169.9 431.651 169.751 431.817C169.604 431.982 169.427 432.129 169.218 432.257C169.01 432.387 168.843 432.525 168.718 432.669C168.592 432.811 168.501 432.98 168.444 433.177C168.387 433.373 168.356 433.618 168.352 433.912V433.955H167.499ZM167.954 436.057C167.779 436.057 167.628 435.994 167.503 435.869C167.378 435.743 167.315 435.593 167.315 435.418C167.315 435.242 167.378 435.092 167.503 434.967C167.628 434.841 167.779 434.778 167.954 434.778C168.129 434.778 168.28 434.841 168.405 434.967C168.53 435.092 168.593 435.242 168.593 435.418C168.593 435.534 168.564 435.64 168.504 435.737C168.448 435.834 168.371 435.912 168.274 435.972C168.179 436.028 168.072 436.057 167.954 436.057Z" fill="#FF5700"/>
</g>
<defs>
<clipPath id="clip0_150_63">
<rect width="360" height="640" fill="white"/>
</clipPath>
</defs>
</svg>
